<?xml version="1.0" encoding="UTF-8" standalone="no"?>
<svg
   xmlns:dc="http://purl.org/dc/elements/1.1/"
   xmlns:cc="http://creativecommons.org/ns#"
   xmlns:rdf="http://www.w3.org/1999/02/22-rdf-syntax-ns#"
   xmlns:svg="http://www.w3.org/2000/svg"
   xmlns="http://www.w3.org/2000/svg"
   xmlns:sodipodi="http://sodipodi.sourceforge.net/DTD/sodipodi-0.dtd"
   xmlns:inkscape="http://www.inkscape.org/namespaces/inkscape"
   version="1.1"
   id="svg2"
   xml:space="preserve"
   width="133.33333"
   height="133.33333"
   viewBox="0 0 133.33333 133.33333"
   sodipodi:docname="logo.eps"><metadata
     id="metadata8"><rdf:RDF><cc:Work
         rdf:about=""><dc:format>image/svg+xml</dc:format><dc:type
           rdf:resource="http://purl.org/dc/dcmitype/StillImage" /></cc:Work></rdf:RDF></metadata><defs
     id="defs6" /><sodipodi:namedview
     pagecolor="#ffffff"
     bordercolor="#666666"
     borderopacity="1"
     objecttolerance="10"
     gridtolerance="10"
     guidetolerance="10"
     inkscape:pageopacity="0"
     inkscape:pageshadow="2"
     inkscape:window-width="640"
     inkscape:window-height="480"
     id="namedview4" /><g
     id="g10"
     inkscape:groupmode="layer"
     inkscape:label="ink_ext_XXXXXX"
     transform="matrix(1.3333333,0,0,-1.3333333,0,133.33333)"><g
       id="g12"
       transform="scale(0.1)"><path
         d="m 21.6797,425.563 2.5703,-6.407 68.6055,-11.297 c 5.5898,-1.062 10.0235,-2.671 13.1755,-4.796 3.157,-2.094 5.387,-6.094 6.774,-11.985 0.242,-0.969 0.441,-2.109 0.648,-3.469 0.16,-1.328 0.235,-2.14 0.235,-2.5 l -8.77,-1.703 c -0.035,0.407 -0.176,1.219 -0.406,2.516 -0.235,1.297 -0.477,2.297 -0.649,2.922 -0.64,2.75 -1.793,4.562 -3.383,5.39 -1.6909,0.891 -4.3003,1.704 -7.7925,2.485 l -5.3789,1.109 -49.0039,-37.656 0.6094,-7.109 -7.3828,-1.75 -6.3282,26.562 7.3828,1.781 2.8125,-6.828 28.0664,20.235 9.9219,6.843 -0.1328,0.36 -45.7226,5.89 0.5781,-7.672 -7.3438,-1.75 -6.4765,27.047"
         style="fill:#ffffff;fill-opacity:1;fill-rule:nonzero;stroke:none"
         id="path14" /><path
         d="m 21.6797,425.563 2.5703,-6.407 68.6055,-11.297 c 5.5898,-1.062 10.0235,-2.671 13.1755,-4.796 3.157,-2.094 5.387,-6.094 6.774,-11.985 0.242,-0.969 0.441,-2.109 0.648,-3.469 0.16,-1.328 0.235,-2.14 0.235,-2.5 l -8.77,-1.703 c -0.035,0.407 -0.176,1.219 -0.406,2.516 -0.235,1.297 -0.477,2.297 -0.649,2.922 -0.64,2.75 -1.793,4.562 -3.383,5.39 -1.6909,0.891 -4.3003,1.704 -7.7925,2.485 l -5.3789,1.109 -49.0039,-37.656 0.6094,-7.109 -7.3828,-1.75 -6.3282,26.562 7.3828,1.781 2.8125,-6.828 28.0664,20.235 9.9219,6.843 -0.1328,0.36 -45.7226,5.89 0.5781,-7.672 -7.3438,-1.75 -6.4765,27.047 z"
         style="fill:none;stroke:#ffffff;stroke-width:3.896;stroke-linecap:butt;stroke-linejoin:miter;stroke-miterlimit:10;stroke-dasharray:none;stroke-opacity:1"
         id="path16" /><path
         d="m 89.9805,453.469 -1.8594,9.687 -68.5078,-1.39 -1.4961,-9.766 -7.582,-0.141 -0.64067,31.266 7.61327,0.141 1.8672,-9.688 29.9063,0.578 -0.1719,9.516 -28.7188,19.094 c -4.5703,3.14 -7.5898,5.89 -9.2461,8.25 -1.66403,2.359 -2.57419,5.093 -2.60544,8.265 -0.10156,3.782 0.8125,6 2.50004,8.907 l 8.3359,-1.594 c -0.3672,-2.125 -0.6445,-3.625 -0.6133,-5.25 0.043,-1.844 0.5508,-3.453 1.5938,-4.766 1.0195,-1.234 2.7461,-2.687 5.1523,-4.359 L 51.9531,494 l 35.1485,29.688 1.3203,8.218 7.5273,0.141 0.5625,-28.578 -7.5078,-0.141 -0.9844,6.61 -29.0273,-24.329 0.2109,-11.218 28.6758,0.547 1.4883,9.796 7.5234,0.141 0.6446,-31.266"
         style="fill:#ffffff;fill-opacity:1;fill-rule:nonzero;stroke:none"
         id="path18" /><path
         d="m 89.9805,453.469 -1.8594,9.687 -68.5078,-1.39 -1.4961,-9.766 -7.582,-0.141 -0.64067,31.266 7.61327,0.141 1.8672,-9.688 29.9063,0.578 -0.1719,9.516 -28.7188,19.094 c -4.5703,3.14 -7.5898,5.89 -9.2461,8.25 -1.66403,2.359 -2.57419,5.093 -2.60544,8.265 -0.10156,3.782 0.8125,6 2.50004,8.907 l 8.3359,-1.594 c -0.3672,-2.125 -0.6445,-3.625 -0.6133,-5.25 0.043,-1.844 0.5508,-3.453 1.5938,-4.766 1.0195,-1.234 2.7461,-2.687 5.1523,-4.359 L 51.9531,494 l 35.1485,29.688 1.3203,8.218 7.5273,0.141 0.5625,-28.578 -7.5078,-0.141 -0.9844,6.61 -29.0273,-24.329 0.2109,-11.218 28.6758,0.547 1.4883,9.796 7.5234,0.141 0.6446,-31.266 z"
         style="fill:none;stroke:#ffffff;stroke-width:3.896;stroke-linecap:butt;stroke-linejoin:miter;stroke-miterlimit:10;stroke-dasharray:none;stroke-opacity:1"
         id="path20" /><path
         d="m 50.6992,621.813 c 7.7227,-1.485 13.4766,-5.235 17.1406,-11.172 3.6446,-5.938 4.629,-13.5 2.875,-22.61 l -3.1484,-16.328 c -4.9805,0.969 -8.2617,5.781 -7.3164,10.781 l 1.4219,7.297 c 1.1133,5.735 0.4375,10.391 -2.1016,13.86 -2.6055,3.484 -6.2265,5.656 -11,6.547 -4.6758,0.921 -8.875,0.281 -12.6328,-1.969 -3.7305,-2.297 -6.1289,-6.313 -7.25,-12.063 L 25.2031,578 l 32.9805,-6.375 9.0391,-1.75 25.1601,-4.844 0.8516,2.203 c 1.5195,4.032 5.7617,6.454 10.0236,5.625 l -5.8947,-30.671 c -4.3008,0.843 -7.3516,4.593 -7.2461,8.906 l 0.0351,2.359 -67.2265,12.985 -0.7813,-2.094 c -1.5468,-4.156 -5.8203,-6.5 -10.1211,-5.672 l 1.8321,9.531 5.7578,29.703 c 1.7226,9.11 5.4492,15.75 11.1406,19.875 5.6563,4.141 12.293,5.516 19.9453,4.032"
         style="fill:#ffffff;fill-opacity:1;fill-rule:nonzero;stroke:none"
         id="path22" /><path
         d="m 50.6992,621.813 c 7.7227,-1.485 13.4766,-5.235 17.1406,-11.172 3.6446,-5.938 4.629,-13.5 2.875,-22.61 l -3.1484,-16.328 c -4.9805,0.969 -8.2617,5.781 -7.3164,10.781 l 1.4219,7.297 c 1.1133,5.735 0.4375,10.391 -2.1016,13.86 -2.6055,3.484 -6.2265,5.656 -11,6.547 -4.6758,0.921 -8.875,0.281 -12.6328,-1.969 -3.7305,-2.297 -6.1289,-6.313 -7.25,-12.063 L 25.2031,578 l 32.9805,-6.375 9.0391,-1.75 25.1601,-4.844 0.8516,2.203 c 1.5195,4.032 5.7617,6.454 10.0236,5.625 l -5.8947,-30.671 c -4.3008,0.843 -7.3516,4.593 -7.2461,8.906 l 0.0351,2.359 -67.2265,12.985 -0.7813,-2.094 c -1.5468,-4.156 -5.8203,-6.5 -10.1211,-5.672 l 1.8321,9.531 5.7578,29.703 c 1.7226,9.11 5.4492,15.75 11.1406,19.875 5.6563,4.141 12.293,5.516 19.9453,4.032 z"
         style="fill:none;stroke:#ffffff;stroke-width:3.896;stroke-linecap:butt;stroke-linejoin:miter;stroke-miterlimit:10;stroke-dasharray:none;stroke-opacity:1"
         id="path24" /><path
         d="m 137.461,683.969 0.977,-0.36 -8.907,-23.312 -1.176,0.469 c -3.421,1.297 -5.324,4.843 -4.605,8.375 l 0.031,0.422 -16.968,0.359 -11.0396,-28.813 c -4.7695,3.954 -6.5,10.438 -4.3007,16.25 l 4.9101,12.735 -39.5898,0.797 -0.1328,-0.328 50.4958,-44.282 0.231,0.297 c 1.832,3.063 5.691,4.422 9.082,3.125 l 1.113,-0.453 -8.867,-23.172 -0.953,0.36 c -3.485,1.343 -5.449,5 -4.567,8.625 l -62.3161,56.437 3.6211,9.438 83.855,-0.313 c 1.754,3.234 5.622,4.703 9.106,3.344"
         style="fill:#ffffff;fill-opacity:1;fill-rule:nonzero;stroke:none"
         id="path26" /><path
         d="m 137.461,683.969 0.977,-0.36 -8.907,-23.312 -1.176,0.469 c -3.421,1.297 -5.324,4.843 -4.605,8.375 l 0.031,0.422 -16.968,0.359 -11.0396,-28.813 c -4.7695,3.954 -6.5,10.438 -4.3007,16.25 l 4.9101,12.735 -39.5898,0.797 -0.1328,-0.328 50.4958,-44.282 0.231,0.297 c 1.832,3.063 5.691,4.422 9.082,3.125 l 1.113,-0.453 -8.867,-23.172 -0.953,0.36 c -3.485,1.343 -5.449,5 -4.567,8.625 l -62.3161,56.437 3.6211,9.438 83.855,-0.313 c 1.754,3.234 5.622,4.703 9.106,3.344 z"
         style="fill:none;stroke:#ffffff;stroke-width:3.896;stroke-linecap:butt;stroke-linejoin:miter;stroke-miterlimit:10;stroke-dasharray:none;stroke-opacity:1"
         id="path28" /><path
         d="m 85.4766,762.297 c 3.7578,-2.203 5.4179,-6.859 3.8672,-10.906 l -0.8204,-2.188 58.9566,-34.734 1.563,1.765 c 2.773,3.36 7.555,4.172 11.34,1.922 l -15.848,-26.875 c -3.758,2.219 -5.387,6.782 -3.793,10.844 l 0.817,2.219 -58.9574,34.75 -1.5235,-1.735 c -2.8125,-3.328 -7.6523,-4.156 -11.4179,-1.953 z m -8.3633,2.984 c -1.7617,-2.984 -5.6172,-4.015 -8.5977,-2.265 -2.9883,1.765 -4.0312,5.687 -2.2773,8.703 l 0.582,0.953 c 1.7891,3.016 5.6836,3.969 8.6641,2.203 2.9883,-1.781 3.9687,-5.625 2.207,-8.594 z M 62.0781,739.734 c -1.7617,-2.984 -5.6211,-4 -8.6367,-2.265 -2.9766,1.765 -4,5.687 -2.2305,8.672 l 0.5704,0.984 c 1.7617,2.984 5.6601,3.953 8.6757,2.188 2.9375,-1.75 3.961,-5.594 2.1993,-8.579"
         style="fill:#ffffff;fill-opacity:1;fill-rule:nonzero;stroke:none"
         id="path30" /><path
         d="m 85.4766,762.297 c 3.7578,-2.203 5.4179,-6.859 3.8672,-10.906 l -0.8204,-2.188 58.9566,-34.734 1.563,1.765 c 2.773,3.36 7.555,4.172 11.34,1.922 l -15.848,-26.875 c -3.758,2.219 -5.387,6.782 -3.793,10.844 l 0.817,2.219 -58.9574,34.75 -1.5235,-1.735 c -2.8125,-3.328 -7.6523,-4.156 -11.4179,-1.953 z"
         style="fill:none;stroke:#ffffff;stroke-width:3.896;stroke-linecap:butt;stroke-linejoin:miter;stroke-miterlimit:10;stroke-dasharray:none;stroke-opacity:1"
         id="path32" /><path
         d="m 77.1133,765.281 c -1.7617,-2.984 -5.6172,-4.015 -8.5977,-2.265 -2.9883,1.765 -4.0312,5.687 -2.2773,8.703 l 0.582,0.953 c 1.7891,3.016 5.6836,3.969 8.6641,2.203 2.9883,-1.781 3.9687,-5.625 2.207,-8.594 z"
         style="fill:none;stroke:#ffffff;stroke-width:3.896;stroke-linecap:butt;stroke-linejoin:miter;stroke-miterlimit:10;stroke-dasharray:none;stroke-opacity:1"
         id="path34" /><path
         d="m 62.0781,739.734 c -1.7617,-2.984 -5.6211,-4 -8.6367,-2.265 -2.9766,1.765 -4,5.687 -2.2305,8.672 l 0.5704,0.984 c 1.7617,2.984 5.6601,3.953 8.6757,2.188 2.9375,-1.75 3.961,-5.594 2.1993,-8.579 z"
         style="fill:none;stroke:#ffffff;stroke-width:3.896;stroke-linecap:butt;stroke-linejoin:miter;stroke-miterlimit:10;stroke-dasharray:none;stroke-opacity:1"
         id="path36" /><path
         d="m 220.363,793.922 -20.148,-23.734 c -3.289,2.796 -4.172,7.593 -1.902,11.343 l 1.222,2.032 -22.215,18.875 -26.312,-30.969 -1.629,1.359 c -2.977,2.531 -3.352,7 -0.844,9.953 l 21.738,25.641 -22.789,19.375 -1.8,-1.453 c -3.352,-2.813 -8.262,-2.813 -11.575,0.031 l 6.297,7.438 7.582,8.937 6.297,7.375 c 3.324,-2.828 4.172,-7.641 1.934,-11.391 l -1.153,-1.984 52.055,-44.281 1.793,1.562 c 3.316,2.75 8.168,2.672 11.449,-0.109 z m -34.808,-40.969 -20.16,-23.734 c -3.282,2.797 -4.129,7.594 -1.922,11.297 l 1.211,2 -52.047,44.265 -1.797,-1.453 c -3.32,-2.812 -8.195,-2.75 -11.5392,0.078 l 20.1762,23.735 c 3.355,-2.797 4.132,-7.672 1.898,-11.422 l -1.156,-2 22.828,-19.391 7.008,-5.969 22.215,-18.906 1.804,1.563 c 3.278,2.75 8.227,2.75 11.481,-0.063"
         style="fill:#ffffff;fill-opacity:1;fill-rule:nonzero;stroke:none"
         id="path38" /><path
         d="m 220.363,793.922 -20.148,-23.734 c -3.289,2.796 -4.172,7.593 -1.902,11.343 l 1.222,2.032 -22.215,18.875 -26.312,-30.969 -1.629,1.359 c -2.977,2.531 -3.352,7 -0.844,9.953 l 21.738,25.641 -22.789,19.375 -1.8,-1.453 c -3.352,-2.813 -8.262,-2.813 -11.575,0.031 l 6.297,7.438 7.582,8.937 6.297,7.375 c 3.324,-2.828 4.172,-7.641 1.934,-11.391 l -1.153,-1.984 52.055,-44.281 1.793,1.562 c 3.316,2.75 8.168,2.672 11.449,-0.109 z"
         style="fill:none;stroke:#ffffff;stroke-width:3.896;stroke-linecap:butt;stroke-linejoin:miter;stroke-miterlimit:10;stroke-dasharray:none;stroke-opacity:1"
         id="path40" /><path
         d="m 185.555,752.953 -20.16,-23.734 c -3.282,2.797 -4.129,7.594 -1.922,11.297 l 1.211,2 -52.047,44.265 -1.797,-1.453 c -3.32,-2.812 -8.195,-2.75 -11.5392,0.078 l 20.1762,23.735 c 3.355,-2.797 4.132,-7.672 1.898,-11.422 l -1.156,-2 22.828,-19.391 7.008,-5.969 22.215,-18.906 1.804,1.563 c 3.278,2.75 8.227,2.75 11.481,-0.063 z"
         style="fill:none;stroke:#ffffff;stroke-width:3.896;stroke-linecap:butt;stroke-linejoin:miter;stroke-miterlimit:10;stroke-dasharray:none;stroke-opacity:1"
         id="path42" /><path
         d="m 244.813,888.094 c -3.184,-2.453 -7.586,-2.25 -10.633,0.469 -3.289,3.078 -7.887,4.296 -12.258,3.25 l -0.137,-0.032 c -2.914,-0.797 -5.89,-2.297 -8.969,-4.64 -7.222,-5.438 -10.742,-12.157 -10.671,-20.36 0.101,-8.078 3.179,-16.187 9.214,-24.203 l 0.809,-1.078 c 6.055,-8.047 12.969,-13.203 20.684,-15.609 7.796,-2.36 14.976,-1.063 21.679,4.047 3.18,2.406 5.657,5 7.481,7.968 2.504,4 2.644,9.047 0.539,13.219 -1.692,3.531 -0.77,7.672 2.308,9.984 l 1.286,1 3.492,-4.578 c 4.636,-6.156 5.418,-14.422 1.992,-21.422 -2.438,-4.984 -6.266,-9.484 -11.582,-13.484 -8.938,-6.781 -18.82,-9.062 -29.633,-6.75 -10.762,2.266 -19.976,8.484 -27.59,18.563 l -0.75,0.984 c -7.613,10.109 -11.207,20.672 -10.531,31.594 0.648,10.968 5.59,19.875 14.734,26.797 5.274,4 10.629,6.484 16.149,7.421 0.031,0.063 0.137,0.032 0.172,0.094 7.754,1.25 15.507,-2.078 20.179,-8.281 l 3.157,-4.156"
         style="fill:#ffffff;fill-opacity:1;fill-rule:nonzero;stroke:none"
         id="path44" /><path
         d="m 244.813,888.094 c -3.184,-2.453 -7.586,-2.25 -10.633,0.469 -3.289,3.078 -7.887,4.296 -12.258,3.25 l -0.137,-0.032 c -2.914,-0.797 -5.89,-2.297 -8.969,-4.64 -7.222,-5.438 -10.742,-12.157 -10.671,-20.36 0.101,-8.078 3.179,-16.187 9.214,-24.203 l 0.809,-1.078 c 6.055,-8.047 12.969,-13.203 20.684,-15.609 7.796,-2.36 14.976,-1.063 21.679,4.047 3.18,2.406 5.657,5 7.481,7.968 2.504,4 2.644,9.047 0.539,13.219 -1.692,3.531 -0.77,7.672 2.308,9.984 l 1.286,1 3.492,-4.578 c 4.636,-6.156 5.418,-14.422 1.992,-21.422 -2.438,-4.984 -6.266,-9.484 -11.582,-13.484 -8.938,-6.781 -18.82,-9.062 -29.633,-6.75 -10.762,2.266 -19.976,8.484 -27.59,18.563 l -0.75,0.984 c -7.613,10.109 -11.207,20.672 -10.531,31.594 0.648,10.968 5.59,19.875 14.734,26.797 5.274,4 10.629,6.484 16.149,7.421 0.031,0.063 0.137,0.032 0.172,0.094 7.754,1.25 15.507,-2.078 20.179,-8.281 l 3.157,-4.156 z"
         style="fill:none;stroke:#ffffff;stroke-width:3.896;stroke-linecap:butt;stroke-linejoin:miter;stroke-miterlimit:10;stroke-dasharray:none;stroke-opacity:1"
         id="path46" /><path
         d="m 295.332,896.016 14.059,-29.782 19.398,9.172 c 5.352,2.532 8.606,5.86 9.891,9.953 1.285,4.125 0.883,8.407 -1.215,12.782 -2.004,4.281 -4.945,7.125 -8.871,8.578 -3.93,1.5 -8.504,0.969 -13.852,-1.547 z m -10.355,44.734 3.246,-6.859 -8.125,-5.672 -3.93,8.375 z m -8.809,-4.156 15.207,-32.203 19.402,9.156 c 8.399,3.984 15.914,5.031 22.485,3.031 6.601,-1.953 11.551,-6.437 14.906,-13.515 3.352,-7.079 3.715,-13.891 1.082,-20.375 -2.645,-6.454 -8.164,-11.657 -16.535,-15.594 l -38.84,-18.36 -3.219,6.797 8.102,5.688 -29.262,61.984 -9.519,-2.672 -3.25,6.86 8.808,4.187"
         style="fill:#ffffff;fill-opacity:1;fill-rule:nonzero;stroke:none"
         id="path48" /><path
         d="m 295.332,896.016 14.059,-29.782 19.398,9.172 c 5.352,2.532 8.606,5.86 9.891,9.953 1.285,4.125 0.883,8.407 -1.215,12.782 -2.004,4.281 -4.945,7.125 -8.871,8.578 -3.93,1.5 -8.504,0.969 -13.852,-1.547 z"
         style="fill:none;stroke:#ffffff;stroke-width:3.896;stroke-linecap:butt;stroke-linejoin:miter;stroke-miterlimit:10;stroke-dasharray:none;stroke-opacity:1"
         id="path50" /><path
         d="m 284.977,940.75 3.246,-6.859 -8.125,-5.672 -3.93,8.375 z"
         style="fill:none;stroke:#ffffff;stroke-width:3.896;stroke-linecap:butt;stroke-linejoin:miter;stroke-miterlimit:10;stroke-dasharray:none;stroke-opacity:1"
         id="path52" /><path
         d="m 276.168,936.594 15.207,-32.203 19.402,9.156 c 8.399,3.984 15.914,5.031 22.485,3.031 6.601,-1.953 11.551,-6.437 14.906,-13.515 3.352,-7.079 3.715,-13.891 1.082,-20.375 -2.645,-6.454 -8.164,-11.657 -16.535,-15.594 l -38.84,-18.36 -3.219,6.797 8.102,5.688 -29.262,61.984 -9.519,-2.672 -3.25,6.86 8.808,4.187 z"
         style="fill:none;stroke:#ffffff;stroke-width:3.896;stroke-linecap:butt;stroke-linejoin:miter;stroke-miterlimit:10;stroke-dasharray:none;stroke-opacity:1"
         id="path54" /><path
         d="m 367.805,890.891 9.078,3.859 -15.684,66.797 -9.851,-0.609 -1.731,7.406 30.414,7.14 1.766,-7.406 -9.113,-3.844 6.843,-29.171 9.243,2.156 12.699,32.125 c 2.097,5.094 4.129,8.64 6.094,10.781 1.964,2.094 4.437,3.547 7.515,4.266 3.692,0.859 6.031,0.437 9.25,-0.594 l 0.203,-8.5 c -2.168,-0.063 -3.722,-0.141 -5.281,-0.484 -1.797,-0.422 -3.254,-1.282 -4.309,-2.563 -0.98,-1.281 -2.062,-3.25 -3.207,-5.969 l -12.23,-29.687 36.309,-28.172 8.324,0.422 1.726,-7.344 -27.84,-6.531 -1.683,7.344 6.258,2.312 -29.868,23.344 -10.933,-2.563 6.531,-27.953 9.891,0.594 1.726,-7.344 -30.453,-7.14"
         style="fill:#ffffff;fill-opacity:1;fill-rule:nonzero;stroke:none"
         id="path56" /><path
         d="m 367.805,890.891 9.078,3.859 -15.684,66.797 -9.851,-0.609 -1.731,7.406 30.414,7.14 1.766,-7.406 -9.113,-3.844 6.843,-29.171 9.243,2.156 12.699,32.125 c 2.097,5.094 4.129,8.64 6.094,10.781 1.964,2.094 4.437,3.547 7.515,4.266 3.692,0.859 6.031,0.437 9.25,-0.594 l 0.203,-8.5 c -2.168,-0.063 -3.722,-0.141 -5.281,-0.484 -1.797,-0.422 -3.254,-1.282 -4.309,-2.563 -0.98,-1.281 -2.062,-3.25 -3.207,-5.969 l -12.23,-29.687 36.309,-28.172 8.324,0.422 1.726,-7.344 -27.84,-6.531 -1.683,7.344 6.258,2.312 -29.868,23.344 -10.933,-2.563 6.531,-27.953 9.891,0.594 1.726,-7.344 -30.453,-7.14 z"
         style="fill:none;stroke:#ffffff;stroke-width:3.896;stroke-linecap:butt;stroke-linejoin:miter;stroke-miterlimit:10;stroke-dasharray:none;stroke-opacity:1"
         id="path58" /><path
         d="m 538.383,904.563 v -1.094 l -24.926,-0.172 v 1.266 c 0,3.625 2.606,6.703 6.098,7.328 l 0.445,0.125 -5.867,15.922 -30.817,-0.219 c 1.934,5.859 7.348,9.844 13.547,9.875 l 13.606,0.109 -13.711,37.141 h -0.332 l -22.762,-63.156 0.379,-0.125 c 3.52,-0.563 6.164,-3.657 6.195,-7.282 v -1.218 l -24.758,-0.188 -0.035,1.016 c 0,3.703 2.641,6.922 6.332,7.422 l 29.77,78.562 10.094,0.094 30.273,-78.156 c 3.652,-0.469 6.43,-3.563 6.469,-7.25"
         style="fill:#ffffff;fill-opacity:1;fill-rule:nonzero;stroke:none"
         id="path60" /><path
         d="m 538.383,904.563 v -1.094 l -24.926,-0.172 v 1.266 c 0,3.625 2.606,6.703 6.098,7.328 l 0.445,0.125 -5.867,15.922 -30.817,-0.219 c 1.934,5.859 7.348,9.844 13.547,9.875 l 13.606,0.109 -13.711,37.141 h -0.332 l -22.762,-63.156 0.379,-0.125 c 3.52,-0.563 6.164,-3.657 6.195,-7.282 v -1.218 l -24.758,-0.188 -0.035,1.016 c 0,3.703 2.641,6.922 6.332,7.422 l 29.77,78.562 10.094,0.094 30.273,-78.156 c 3.652,-0.469 6.43,-3.563 6.469,-7.25 z"
         style="fill:none;stroke:#ffffff;stroke-width:3.896;stroke-linecap:butt;stroke-linejoin:miter;stroke-miterlimit:10;stroke-dasharray:none;stroke-opacity:1"
         id="path62" /><path
         d="m 660.563,872.953 -0.305,-1.031 -23.774,7.5 0.371,1.219 c 1.125,3.453 4.508,5.578 8.063,5.093 l 0.445,-0.015 -0.648,16.953 -29.434,9.266 c 3.664,5 10.032,7.14 15.949,5.281 l 12.969,-4.125 -1.621,39.578 -0.34,0.094 -41.039,-53.094 0.27,-0.234 c 3.219,-1.625 4.769,-5.391 3.695,-8.86 l -0.375,-1.14 -23.637,7.468 0.332,0.969 c 1.086,3.547 4.61,5.75 8.27,5.094 l 52.484,65.609 9.625,-3.047 4.809,-83.687 c 3.32,-1.563 5.012,-5.36 3.891,-8.891"
         style="fill:#ffffff;fill-opacity:1;fill-rule:nonzero;stroke:none"
         id="path64" /><path
         d="m 660.563,872.953 -0.305,-1.031 -23.774,7.5 0.371,1.219 c 1.125,3.453 4.508,5.578 8.063,5.093 l 0.445,-0.015 -0.648,16.953 -29.434,9.266 c 3.664,5 10.032,7.14 15.949,5.281 l 12.969,-4.125 -1.621,39.578 -0.34,0.094 -41.039,-53.094 0.27,-0.234 c 3.219,-1.625 4.769,-5.391 3.695,-8.86 l -0.375,-1.14 -23.637,7.468 0.332,0.969 c 1.086,3.547 4.61,5.75 8.27,5.094 l 52.484,65.609 9.625,-3.047 4.809,-83.687 c 3.32,-1.563 5.012,-5.36 3.891,-8.891 z"
         style="fill:none;stroke:#ffffff;stroke-width:3.896;stroke-linecap:butt;stroke-linejoin:miter;stroke-miterlimit:10;stroke-dasharray:none;stroke-opacity:1"
         id="path66" /><path
         d="m 672.285,874.391 9.242,-3.469 34.61,59.203 -7.594,6.375 3.836,6.563 26.984,-15.813 -3.828,-6.531 -9.246,3.469 -15.101,-25.875 8.199,-4.797 31.293,14.531 c 5.004,2.266 8.941,3.437 11.847,3.609 2.875,0.188 5.7,-0.468 8.395,-2.078 3.258,-1.89 4.68,-3.828 6.305,-6.765 l -5.688,-6.313 c -1.66,1.453 -2.812,2.469 -4.203,3.266 -1.59,0.922 -3.219,1.343 -4.879,1.125 -1.59,-0.235 -3.719,-0.938 -6.43,-2.125 l -29.3,-13.063 6.945,-45.469 6.305,-5.421 -3.801,-6.516 -24.649,14.422 3.789,6.5 6.176,-2.625 -5.59,37.484 -9.722,5.672 -14.465,-24.781 7.555,-6.375 -3.79,-6.516 -26.992,15.797"
         style="fill:#ffffff;fill-opacity:1;fill-rule:nonzero;stroke:none"
         id="path68" /><path
         d="m 672.285,874.391 9.242,-3.469 34.61,59.203 -7.594,6.375 3.836,6.563 26.984,-15.813 -3.828,-6.531 -9.246,3.469 -15.101,-25.875 8.199,-4.797 31.293,14.531 c 5.004,2.266 8.941,3.437 11.847,3.609 2.875,0.188 5.7,-0.468 8.395,-2.078 3.258,-1.89 4.68,-3.828 6.305,-6.765 l -5.688,-6.313 c -1.66,1.453 -2.812,2.469 -4.203,3.266 -1.59,0.922 -3.219,1.343 -4.879,1.125 -1.59,-0.235 -3.719,-0.938 -6.43,-2.125 l -29.3,-13.063 6.945,-45.469 6.305,-5.421 -3.801,-6.516 -24.649,14.422 3.789,6.5 6.176,-2.625 -5.59,37.484 -9.722,5.672 -14.465,-24.781 7.555,-6.375 -3.79,-6.516 -26.992,15.797 z"
         style="fill:none;stroke:#ffffff;stroke-width:3.896;stroke-linecap:butt;stroke-linejoin:miter;stroke-miterlimit:10;stroke-dasharray:none;stroke-opacity:1"
         id="path70" /><path
         d="m 805.508,766.969 -0.719,-0.781 -18.254,17 0.887,0.89 c 2.473,2.688 6.469,3.125 9.449,1.172 l 0.406,-0.234 6.641,15.625 -22.559,21 c 5.457,2.953 12.121,2.125 16.664,-2.094 l 9.957,-9.297 15.547,36.422 -0.281,0.234 -59.867,-30.312 0.172,-0.297 c 2.164,-2.844 1.961,-6.938 -0.477,-9.594 l -0.812,-0.89 -18.153,16.906 0.68,0.765 c 2.5,2.704 6.641,3.204 9.68,1.016 l 75.558,36.719 7.383,-6.875 -31.597,-77.672 c 2.335,-2.828 2.195,-7 -0.305,-9.703"
         style="fill:#ffffff;fill-opacity:1;fill-rule:nonzero;stroke:none"
         id="path72" /><path
         d="m 805.508,766.969 -0.719,-0.781 -18.254,17 0.887,0.89 c 2.473,2.688 6.469,3.125 9.449,1.172 l 0.406,-0.234 6.641,15.625 -22.559,21 c 5.457,2.953 12.121,2.125 16.664,-2.094 l 9.957,-9.297 15.547,36.422 -0.281,0.234 -59.867,-30.312 0.172,-0.297 c 2.164,-2.844 1.961,-6.938 -0.477,-9.594 l -0.812,-0.89 -18.153,16.906 0.68,0.765 c 2.5,2.704 6.641,3.204 9.68,1.016 l 75.558,36.719 7.383,-6.875 -31.597,-77.672 c 2.335,-2.828 2.195,-7 -0.305,-9.703 z"
         style="fill:none;stroke:#ffffff;stroke-width:3.896;stroke-linecap:butt;stroke-linejoin:miter;stroke-miterlimit:10;stroke-dasharray:none;stroke-opacity:1"
         id="path74" /><path
         d="m 871.504,761.438 c -16.121,-9.86 -30.75,-14.375 -41.789,-14.032 l 23.23,-35.062 57.125,37.875 -16.191,24.406 z m 58.176,-24.032 -6.36,-4.187 -6.781,7.187 -57.094,-37.875 6.602,-9.937 -26.113,-15.891 -5.821,8.813 17.778,11.765 -34.645,52.313 -17.871,-11.86 -5.559,8.391 24.582,18.375 4.141,-6.219 c 4.606,-0.593 10.363,-0.062 17.363,1.469 6.977,1.563 15.313,5.438 25.067,11.594 l 22.453,13.187 -3.762,8.578 6.34,4.172 34.297,-51.765"
         style="fill:#ffffff;fill-opacity:1;fill-rule:nonzero;stroke:none"
         id="path76" /><path
         d="m 871.504,761.438 c -16.121,-9.86 -30.75,-14.375 -41.789,-14.032 l 23.23,-35.062 57.125,37.875 -16.191,24.406 z"
         style="fill:none;stroke:#ffffff;stroke-width:3.896;stroke-linecap:butt;stroke-linejoin:miter;stroke-miterlimit:10;stroke-dasharray:none;stroke-opacity:1"
         id="path78" /><path
         d="m 929.68,737.406 -6.36,-4.187 -6.781,7.187 -57.094,-37.875 6.602,-9.937 -26.113,-15.891 -5.821,8.813 17.778,11.765 -34.645,52.313 -17.871,-11.86 -5.559,8.391 24.582,18.375 4.141,-6.219 c 4.606,-0.593 10.363,-0.062 17.363,1.469 6.977,1.563 15.313,5.438 25.067,11.594 l 22.453,13.187 -3.762,8.578 6.34,4.172 34.297,-51.765 z"
         style="fill:none;stroke:#ffffff;stroke-width:3.896;stroke-linecap:butt;stroke-linejoin:miter;stroke-miterlimit:10;stroke-dasharray:none;stroke-opacity:1"
         id="path80" /><path
         d="m 873.367,673.734 1.254,-2 64.008,24.594 -0.445,2.328 c -0.911,4.282 1.5,8.516 5.519,10.078 l 0.07,0.016 23.977,-62.391 -19.512,-7.531 -0.023,0.063 c -2.035,5.297 0.305,11.312 5.449,13.75 l 1.449,0.75 -12.289,31.953 -26.246,-10.11 11.918,-31.078 c -4.769,-1.828 -10.125,0.547 -11.949,5.328 l -8.629,22.422 -29.066,-11.187 12.558,-32.688 1.606,0.469 c 5.379,1.594 11.168,-1.25 13.203,-6.562 L 886.75,614.469 862.492,677.5 c 4.098,1.578 8.676,-0.016 10.875,-3.766"
         style="fill:#ffffff;fill-opacity:1;fill-rule:nonzero;stroke:none"
         id="path82" /><path
         d="m 873.367,673.734 1.254,-2 64.008,24.594 -0.445,2.328 c -0.911,4.282 1.5,8.516 5.519,10.078 l 0.07,0.016 23.977,-62.391 -19.512,-7.531 -0.023,0.063 c -2.035,5.297 0.305,11.312 5.449,13.75 l 1.449,0.75 -12.289,31.953 -26.246,-10.11 11.918,-31.078 c -4.769,-1.828 -10.125,0.547 -11.949,5.328 l -8.629,22.422 -29.066,-11.187 12.558,-32.688 1.606,0.469 c 5.379,1.594 11.168,-1.25 13.203,-6.562 L 886.75,614.469 862.492,677.5 c 4.098,1.578 8.676,-0.016 10.875,-3.766 z"
         style="fill:none;stroke:#ffffff;stroke-width:3.896;stroke-linecap:butt;stroke-linejoin:miter;stroke-miterlimit:10;stroke-dasharray:none;stroke-opacity:1"
         id="path84" /><path
         d="m 971.746,528.578 -72.637,19.078 -0.98,7.75 65.418,36.735 -0.094,0.281 -34.715,-5.672 -24.957,-3.172 -0.105,-2.39 c -0.168,-4.297 -3.449,-7.922 -7.785,-8.469 l -3.965,30.969 c 4.332,0.562 8.402,-2.032 9.656,-6.188 l 0.707,-2.25 67.867,8.719 0.125,2.219 c 0.18,4.437 3.5,8 7.824,8.546 l 1.266,-9.593 1.449,-11.563 c 0.274,-2.015 -0.75,-4.015 -2.613,-5.047 l -63.461,-34.797 0.07,-0.343 70.137,-17.641 c 2.063,-0.453 3.551,-2.141 3.824,-4.219 l 2.707,-21.218 c -4.304,-0.547 -8.464,2.093 -9.722,6.265 l -0.668,2.219 -67.899,-8.703 -0.101,-2.375 c -0.172,-4.344 -3.461,-7.906 -7.762,-8.469 l -3.992,30.938 c 4.332,0.578 8.402,-2.047 9.648,-6.219 l 0.75,-2.266 24.926,3.203 35.043,3.375"
         style="fill:#ffffff;fill-opacity:1;fill-rule:nonzero;stroke:none"
         id="path86" /><path
         d="m 971.746,528.578 -72.637,19.078 -0.98,7.75 65.418,36.735 -0.094,0.281 -34.715,-5.672 -24.957,-3.172 -0.105,-2.39 c -0.168,-4.297 -3.449,-7.922 -7.785,-8.469 l -3.965,30.969 c 4.332,0.562 8.402,-2.032 9.656,-6.188 l 0.707,-2.25 67.867,8.719 0.125,2.219 c 0.18,4.437 3.5,8 7.824,8.546 l 1.266,-9.593 1.449,-11.563 c 0.274,-2.015 -0.75,-4.015 -2.613,-5.047 l -63.461,-34.797 0.07,-0.343 70.137,-17.641 c 2.063,-0.453 3.551,-2.141 3.824,-4.219 l 2.707,-21.218 c -4.304,-0.547 -8.464,2.093 -9.722,6.265 l -0.668,2.219 -67.899,-8.703 -0.101,-2.375 c -0.172,-4.344 -3.461,-7.906 -7.762,-8.469 l -3.992,30.938 c 4.332,0.578 8.402,-2.047 9.648,-6.219 l 0.75,-2.266 24.926,3.203 35.043,3.375 z"
         style="fill:none;stroke:#ffffff;stroke-width:3.896;stroke-linecap:butt;stroke-linejoin:miter;stroke-miterlimit:10;stroke-dasharray:none;stroke-opacity:1"
         id="path88" /><path
         d="m 986.574,451.391 c -4.336,0.312 -7.89,3.734 -8.293,8.062 l -0.273,2.297 -68.242,4.734 -0.571,-2.296 c -1.019,-4.235 -4.91,-7.094 -9.273,-6.782 l 2.129,31.125 c 4.371,-0.281 7.855,-3.672 8.301,-8 l 0.234,-2.343 68.23,-4.735 0.579,2.203 c 1.019,4.266 5.011,7.172 9.343,6.86"
         style="fill:#ffffff;fill-opacity:1;fill-rule:nonzero;stroke:none"
         id="path90" /><path
         d="m 986.574,451.391 c -4.336,0.312 -7.89,3.734 -8.293,8.062 l -0.273,2.297 -68.242,4.734 -0.571,-2.296 c -1.019,-4.235 -4.91,-7.094 -9.273,-6.782 l 2.129,31.125 c 4.371,-0.281 7.855,-3.672 8.301,-8 l 0.234,-2.343 68.23,-4.735 0.579,2.203 c 1.019,4.266 5.011,7.172 9.343,6.86 z"
         style="fill:none;stroke:#ffffff;stroke-width:3.896;stroke-linecap:butt;stroke-linejoin:miter;stroke-miterlimit:10;stroke-dasharray:none;stroke-opacity:1"
         id="path92" /><path
         d="m 941.84,413.047 c -3.891,-2.469 -6.531,-6.656 -7.926,-12.563 l -3.648,-15.734 33.422,-7.828 3.687,15.672 c 2.813,12.109 -1.863,19.953 -12.027,22.328 -5.075,1.187 -9.578,0.562 -13.508,-1.875 z m -51.606,-8.953 7.348,-1.719 -0.613,-9.859 -8.934,2.109 z m 19.539,38.297 c -0.71,-1.266 -1.082,-2.063 -1.386,-3.422 -0.75,-3.219 0.636,-5.86 3.625,-8.828 l 17.949,-16.828 c 6.773,11.156 16.312,15.843 27.934,13.109 8.093,-1.906 13.675,-6.031 16.925,-12.375 3.258,-6.359 3.762,-14.188 1.567,-23.547 l -8.567,-36.687 -7.382,1.734 0.57,9.891 -66.711,15.578 -3.867,-9.125 -7.305,1.718 4.91,21.016 33.149,-7.766 3.992,17.172 -20.453,18.25 c -5.68,5.313 -8.16,11.094 -6.805,16.907 0.781,3.265 1.965,4.937 4.137,6.734"
         style="fill:#ffffff;fill-opacity:1;fill-rule:nonzero;stroke:none"
         id="path94" /><path
         d="m 941.84,413.047 c -3.891,-2.469 -6.531,-6.656 -7.926,-12.563 l -3.648,-15.734 33.422,-7.828 3.687,15.672 c 2.813,12.109 -1.863,19.953 -12.027,22.328 -5.075,1.187 -9.578,0.562 -13.508,-1.875 z"
         style="fill:none;stroke:#ffffff;stroke-width:3.896;stroke-linecap:butt;stroke-linejoin:miter;stroke-miterlimit:10;stroke-dasharray:none;stroke-opacity:1"
         id="path96" /><path
         d="m 890.234,404.094 7.348,-1.719 -0.613,-9.859 -8.934,2.109 z"
         style="fill:none;stroke:#ffffff;stroke-width:3.896;stroke-linecap:butt;stroke-linejoin:miter;stroke-miterlimit:10;stroke-dasharray:none;stroke-opacity:1"
         id="path98" /><path
         d="m 909.773,442.391 c -0.71,-1.266 -1.082,-2.063 -1.386,-3.422 -0.75,-3.219 0.636,-5.86 3.625,-8.828 l 17.949,-16.828 c 6.773,11.156 16.312,15.843 27.934,13.109 8.093,-1.906 13.675,-6.031 16.925,-12.375 3.258,-6.359 3.762,-14.188 1.567,-23.547 l -8.567,-36.687 -7.382,1.734 0.57,9.891 -66.711,15.578 -3.867,-9.125 -7.305,1.718 4.91,21.016 33.149,-7.766 3.992,17.172 -20.453,18.25 c -5.68,5.313 -8.16,11.094 -6.805,16.907 0.781,3.265 1.965,4.937 4.137,6.734 z"
         style="fill:none;stroke:#ffffff;stroke-width:3.896;stroke-linecap:butt;stroke-linejoin:miter;stroke-miterlimit:10;stroke-dasharray:none;stroke-opacity:1"
         id="path100" /><path
         d="m 161.098,217.359 c -14.664,-12 -28.485,-18.468 -39.457,-19.656 l 27.843,-31.5 51.301,45.36 -19.336,21.937 z m 60.89,-15.781 -5.691,-5.047 -7.723,6.219 -51.304,-45.391 7.921,-8.953 -23.703,-19.312 -6.98,7.922 15.988,14.109 -41.519,47.031 -16.0473,-14.218 -6.6758,7.546 21.8091,21.594 4.949,-5.625 c 4.668,0.063 10.289,1.36 17,3.875 6.703,2.5 14.461,7.5 23.226,14.938 l 20.387,16.125 -4.871,7.968 5.687,5.016 41.11,-46.5"
         style="fill:#ffffff;fill-opacity:1;fill-rule:nonzero;stroke:none"
         id="path102" /><path
         d="m 161.098,217.359 c -14.664,-12 -28.485,-18.468 -39.457,-19.656 l 27.843,-31.5 51.301,45.36 -19.336,21.937 z"
         style="fill:none;stroke:#ffffff;stroke-width:3.896;stroke-linecap:butt;stroke-linejoin:miter;stroke-miterlimit:10;stroke-dasharray:none;stroke-opacity:1"
         id="path104" /><path
         d="m 221.988,201.578 -5.691,-5.047 -7.723,6.219 -51.304,-45.391 7.921,-8.953 -23.703,-19.312 -6.98,7.922 15.988,14.109 -41.519,47.031 -16.0473,-14.218 -6.6758,7.546 21.8091,21.594 4.949,-5.625 c 4.668,0.063 10.289,1.36 17,3.875 6.703,2.5 14.461,7.5 23.226,14.938 l 20.387,16.125 -4.871,7.968 5.687,5.016 41.11,-46.5 z"
         style="fill:none;stroke:#ffffff;stroke-width:3.896;stroke-linecap:butt;stroke-linejoin:miter;stroke-miterlimit:10;stroke-dasharray:none;stroke-opacity:1"
         id="path106" /><path
         d="m 254.5,176.859 -4.406,-6.203 -8.871,4.297 -29.118,-40.828 0.196,-0.312 60.043,12.171 3.183,4.485 -6.945,7.015 4.402,6.188 7.93,-5.672 9.578,-6.812 7.926,-5.657 -4.402,-6.187 -8.911,4.281 -39.75,-55.8437 6.934,-6.9844 -4.359,-6.1406 -25.469,18.125 4.406,6.1406 8.899,-4.2656 28.148,39.4997 -0.203,0.313 -60.082,-12.219 -2.199,-3.125 6.949,-7 -4.375,-6.141 -25.461,18.141 4.363,6.141 8.942,-4.297 39.757,55.844 -6.945,7 4.406,6.203 7.895,-5.672 9.609,-6.828"
         style="fill:#ffffff;fill-opacity:1;fill-rule:nonzero;stroke:none"
         id="path108" /><path
         d="m 254.5,176.859 -4.406,-6.203 -8.871,4.297 -29.118,-40.828 0.196,-0.312 60.043,12.171 3.183,4.485 -6.945,7.015 4.402,6.188 7.93,-5.672 9.578,-6.812 7.926,-5.657 -4.402,-6.187 -8.911,4.281 -39.75,-55.8437 6.934,-6.9844 -4.359,-6.1406 -25.469,18.125 4.406,6.1406 8.899,-4.2656 28.148,39.4997 -0.203,0.313 -60.082,-12.219 -2.199,-3.125 6.949,-7 -4.375,-6.141 -25.461,18.141 4.363,6.141 8.942,-4.297 39.757,55.844 -6.945,7 4.406,6.203 7.895,-5.672 9.609,-6.828 z"
         style="fill:none;stroke:#ffffff;stroke-width:3.896;stroke-linecap:butt;stroke-linejoin:miter;stroke-miterlimit:10;stroke-dasharray:none;stroke-opacity:1"
         id="path110" /><path
         d="m 354.801,91.4531 c -3.653,1.5782 -5.656,5.5157 -4.809,9.4999 1.082,4.375 -0.097,9 -3.179,12.297 l -0.11,0.094 c -2.098,2.156 -4.871,4.031 -8.426,5.594 -8.3,3.578 -15.882,3.375 -22.996,-0.719 -6.972,-4.047 -12.562,-10.703 -16.562,-19.9221 l -0.535,-1.25 c -4.032,-9.2188 -5.118,-17.7969 -3.422,-25.7188 1.761,-7.9218 6.437,-13.5468 14.156,-16.9218 3.652,-1.5938 7.145,-2.4375 10.598,-2.5782 4.711,-0.2343 9.172,2.125 11.816,6.0157 2.238,3.1875 6.27,4.4062 9.793,2.9062 l 1.516,-0.6875 -2.266,-5.25 c -3.078,-7.0781 -9.895,-11.7812 -17.637,-12.2812 -5.562,-0.3125 -11.383,0.8593 -17.445,3.5 C 294.961,50.5156 288.121,58 284.84,68.5625 c -3.356,10.5156 -2.438,21.5781 2.601,33.1565 l 0.516,1.156 c 5.043,11.625 12.496,19.922 22.313,24.688 9.855,4.843 20.082,4.906 30.609,0.312 6.066,-2.641 10.875,-6.094 14.398,-10.406 0.032,-0.047 0.102,-0.11 0.133,-0.156 4.879,-6.094 5.82,-14.516 2.711,-21.6567 l -2.062,-4.75"
         style="fill:#ffffff;fill-opacity:1;fill-rule:nonzero;stroke:none"
         id="path112" /><path
         d="m 354.801,91.4531 c -3.653,1.5782 -5.656,5.5157 -4.809,9.4999 1.082,4.375 -0.097,9 -3.179,12.297 l -0.11,0.094 c -2.098,2.156 -4.871,4.031 -8.426,5.594 -8.3,3.578 -15.882,3.375 -22.996,-0.719 -6.972,-4.047 -12.562,-10.703 -16.562,-19.9221 l -0.535,-1.25 c -4.032,-9.2188 -5.118,-17.7969 -3.422,-25.7188 1.761,-7.9218 6.437,-13.5468 14.156,-16.9218 3.652,-1.5938 7.145,-2.4375 10.598,-2.5782 4.711,-0.2343 9.172,2.125 11.816,6.0157 2.238,3.1875 6.27,4.4062 9.793,2.9062 l 1.516,-0.6875 -2.266,-5.25 c -3.078,-7.0781 -9.895,-11.7812 -17.637,-12.2812 -5.562,-0.3125 -11.383,0.8593 -17.445,3.5 C 294.961,50.5156 288.121,58 284.84,68.5625 c -3.356,10.5156 -2.438,21.5781 2.601,33.1565 l 0.516,1.156 c 5.043,11.625 12.496,19.922 22.313,24.688 9.855,4.843 20.082,4.906 30.609,0.312 6.066,-2.641 10.875,-6.094 14.398,-10.406 0.032,-0.047 0.102,-0.11 0.133,-0.156 4.879,-6.094 5.82,-14.516 2.711,-21.6567 l -2.062,-4.75 z"
         style="fill:none;stroke:#ffffff;stroke-width:3.896;stroke-linecap:butt;stroke-linejoin:miter;stroke-miterlimit:10;stroke-dasharray:none;stroke-opacity:1"
         id="path114" /><path
         d="m 440.988,77.75 c -5.55,1.2813 -9.215,6.5156 -8.465,12.1094 L 413.762,94.1563 398.594,27.4375 400.719,26.5 c 4.039,-1.6406 6.238,-5.9375 5.254,-10.1875 l -30.383,6.9219 c 0.953,4.25 4.82,7.1719 9.152,6.9219 l 2.367,-0.1094 15.172,66.7031 -18.863,4.313 c -1.695,-5.3755 -7.219,-8.5317 -12.734,-7.2661 h -0.036 l 3.528,15.5621 c 0.402,1.719 2.094,2.813 3.855,2.407 L 442.07,97.2031 c 1.762,-0.4062 2.844,-2.125 2.442,-3.8593"
         style="fill:#ffffff;fill-opacity:1;fill-rule:nonzero;stroke:none"
         id="path116" /><path
         d="m 440.988,77.75 c -5.55,1.2813 -9.215,6.5156 -8.465,12.1094 L 413.762,94.1563 398.594,27.4375 400.719,26.5 c 4.039,-1.6406 6.238,-5.9375 5.254,-10.1875 l -30.383,6.9219 c 0.953,4.25 4.82,7.1719 9.152,6.9219 l 2.367,-0.1094 15.172,66.7031 -18.863,4.313 c -1.695,-5.3755 -7.219,-8.5317 -12.734,-7.2661 h -0.036 l 3.528,15.5621 c 0.402,1.719 2.094,2.813 3.855,2.407 L 442.07,97.2031 c 1.762,-0.4062 2.844,-2.125 2.442,-3.8593 z"
         style="fill:none;stroke:#ffffff;stroke-width:3.896;stroke-linecap:butt;stroke-linejoin:miter;stroke-miterlimit:10;stroke-dasharray:none;stroke-opacity:1"
         id="path118" /><path
         d="m 482.063,94.8438 -0.098,-7.5938 -9.793,-1.5312 -0.742,-50.1407 0.336,-0.125 42.547,44.1407 0.027,5.5 -9.688,1.8125 0.129,7.5937 9.723,-0.1562 11.754,-0.1563 9.793,-0.1562 -0.172,-7.5938 -9.731,-1.5312 -1.05,-68.5625 9.734,-1.8282 L 534.691,7 503.469,7.46875 503.57,15 l 9.75,1.5313 0.743,48.5156 -0.36,0.1562 -42.512,-44.2187 -0.031,-3.8281 9.688,-1.8282 -0.106,-7.5156 -31.219,0.45313 0.098,7.54687 9.754,1.5313 1.055,68.5625 -9.723,1.8281 0.098,7.5781 9.754,-0.1406 11.757,-0.1875"
         style="fill:#ffffff;fill-opacity:1;fill-rule:nonzero;stroke:none"
         id="path120" /><path
         d="m 482.063,94.8438 -0.098,-7.5938 -9.793,-1.5312 -0.742,-50.1407 0.336,-0.125 42.547,44.1407 0.027,5.5 -9.688,1.8125 0.129,7.5937 9.723,-0.1562 11.754,-0.1563 9.793,-0.1562 -0.172,-7.5938 -9.731,-1.5312 -1.05,-68.5625 9.734,-1.8282 L 534.691,7 503.469,7.46875 503.57,15 l 9.75,1.5313 0.743,48.5156 -0.36,0.1562 -42.512,-44.2187 -0.031,-3.8281 9.688,-1.8282 -0.106,-7.5156 -31.219,0.45313 0.098,7.54687 9.754,1.5313 1.055,68.5625 -9.723,1.8281 0.098,7.5781 9.754,-0.1406 11.757,-0.1875 z"
         style="fill:none;stroke:#ffffff;stroke-width:3.896;stroke-linecap:butt;stroke-linejoin:miter;stroke-miterlimit:10;stroke-dasharray:none;stroke-opacity:1"
         id="path122" /><path
         d="m 575.566,92.4531 5.254,-31.3593 c 2.676,-16.125 2.938,-28.1094 0.707,-35.9063 -2.172,-7.8437 -7.863,-12.75 -17.035,-14.7031 l -3.054,-0.65627 -1.926,9.01567 2.336,0.5156 c 5.285,1.0937 8.363,4.5937 9.379,10.375 1.023,5.8437 0.414,15.5 -1.856,28.9062 l -5.285,31.4219 -9.481,-0.3906 -1.558,7.3906 70.98,15.3125 1.59,-7.422 -9.183,-3.703 14.433,-67.0469 9.883,0.4063 1.559,-7.375 -30.543,-6.5781 -1.559,7.3593 9.145,3.6875 -14.422,67.0625"
         style="fill:#ffffff;fill-opacity:1;fill-rule:nonzero;stroke:none"
         id="path124" /><path
         d="m 575.566,92.4531 5.254,-31.3593 c 2.676,-16.125 2.938,-28.1094 0.707,-35.9063 -2.172,-7.8437 -7.863,-12.75 -17.035,-14.7031 l -3.054,-0.65627 -1.926,9.01567 2.336,0.5156 c 5.285,1.0937 8.363,4.5937 9.379,10.375 1.023,5.8437 0.414,15.5 -1.856,28.9062 l -5.285,31.4219 -9.481,-0.3906 -1.558,7.3906 70.98,15.3125 1.59,-7.422 -9.183,-3.703 14.433,-67.0469 9.883,0.4063 1.559,-7.375 -30.543,-6.5781 -1.559,7.3593 9.145,3.6875 -14.422,67.0625 z"
         style="fill:none;stroke:#ffffff;stroke-width:3.896;stroke-linecap:butt;stroke-linejoin:miter;stroke-miterlimit:10;stroke-dasharray:none;stroke-opacity:1"
         id="path126" /><path
         d="m 705.152,52.7188 -3.047,6.9062 8.239,5.4844 3.719,-8.4063 z m -38.261,35.7968 c 4.339,-1.625 9.214,-1.2187 14.8,1.3125 l 14.762,6.5313 -13.973,31.4216 -14.703,-6.531 c -11.347,-5.062 -14.761,-13.547 -10.531,-23.1094 2.129,-4.7343 5.317,-7.9687 9.645,-9.625 z m -4.024,-43.2968 c 1.418,0.1718 2.34,0.375 3.578,0.9375 2.993,1.3281 4.274,4.0625 4.817,8.2343 l 2.609,24.4532 c -13.008,-1.3282 -22.453,3.4687 -27.332,14.4062 -3.383,7.594 -3.445,14.578 -0.375,20.969 3.086,6.437 9.09,11.562 17.856,15.484 l 34.406,15.313 3.078,-6.938 -8.223,-5.5 27.867,-62.6717 9.579,2.4531 3.054,-6.9063 -19.718,-8.75 -13.852,31.125 -16.07,-7.1718 -2.176,-27.3282 c -0.813,-7.75 -3.969,-13.2031 -9.426,-15.6406 -3.07,-1.375 -5.101,-1.4219 -7.816,-0.7656"
         style="fill:#ffffff;fill-opacity:1;fill-rule:nonzero;stroke:none"
         id="path128" /><path
         d="m 705.152,52.7188 -3.047,6.9062 8.239,5.4844 3.719,-8.4063 z"
         style="fill:none;stroke:#ffffff;stroke-width:3.896;stroke-linecap:butt;stroke-linejoin:miter;stroke-miterlimit:10;stroke-dasharray:none;stroke-opacity:1"
         id="path130" /><path
         d="m 666.891,88.5156 c 4.339,-1.625 9.214,-1.2187 14.8,1.3125 l 14.762,6.5313 -13.973,31.4216 -14.703,-6.531 c -11.347,-5.062 -14.761,-13.547 -10.531,-23.1094 2.129,-4.7343 5.317,-7.9687 9.645,-9.625 z"
         style="fill:none;stroke:#ffffff;stroke-width:3.896;stroke-linecap:butt;stroke-linejoin:miter;stroke-miterlimit:10;stroke-dasharray:none;stroke-opacity:1"
         id="path132" /><path
         d="m 662.867,45.2188 c 1.418,0.1718 2.34,0.375 3.578,0.9375 2.993,1.3281 4.274,4.0625 4.817,8.2343 l 2.609,24.4532 c -13.008,-1.3282 -22.453,3.4687 -27.332,14.4062 -3.383,7.594 -3.445,14.578 -0.375,20.969 3.086,6.437 9.09,11.562 17.856,15.484 l 34.406,15.313 3.078,-6.938 -8.223,-5.5 27.867,-62.6717 9.579,2.4531 3.054,-6.9063 -19.718,-8.75 -13.852,31.125 -16.07,-7.1718 -2.176,-27.3282 c -0.813,-7.75 -3.969,-13.2031 -9.426,-15.6406 -3.07,-1.375 -5.101,-1.4219 -7.816,-0.7656 z"
         style="fill:none;stroke:#ffffff;stroke-width:3.896;stroke-linecap:butt;stroke-linejoin:miter;stroke-miterlimit:10;stroke-dasharray:none;stroke-opacity:1"
         id="path134" /><path
         d="m 778.879,193.156 -6.836,-7.125 40.742,-55.125 9.137,6.735 17.953,-24.25 -9.379,-6.938 -12.465,16.891 -60.515,-44.8127 -4.465,6.0625 6.804,7.1406 -40.742,55.1246 -8.8,-4.437 -4.504,6.078 7.824,5.781 9.48,7.032 7.785,5.781 4.543,-6.094 -6.851,-7.141 40.742,-55.109 34.008,25.141 -40.742,55.14 -8.809,-4.468 -4.543,6.125 25.137,18.578"
         style="fill:#ffffff;fill-opacity:1;fill-rule:nonzero;stroke:none"
         id="path136" /><path
         d="m 778.879,193.156 -6.836,-7.125 40.742,-55.125 9.137,6.735 17.953,-24.25 -9.379,-6.938 -12.465,16.891 -60.515,-44.8127 -4.465,6.0625 6.804,7.1406 -40.742,55.1246 -8.8,-4.437 -4.504,6.078 7.824,5.781 9.48,7.032 7.785,5.781 4.543,-6.094 -6.851,-7.141 40.742,-55.109 34.008,25.141 -40.742,55.14 -8.809,-4.468 -4.543,6.125 25.137,18.578 z"
         style="fill:none;stroke:#ffffff;stroke-width:3.896;stroke-linecap:butt;stroke-linejoin:miter;stroke-miterlimit:10;stroke-dasharray:none;stroke-opacity:1"
         id="path138" /><path
         d="m 801.742,229.672 c 3.149,-3.016 3.696,-7.922 1.223,-11.516 l -1.293,-1.937 49.34,-47.485 1.933,1.375 c 3.524,2.625 8.332,2.297 11.481,-0.765 l -21.637,-22.485 c -3.16,3.032 -3.664,7.86 -1.191,11.454 l 1.285,1.984 -49.34,47.484 -1.855,-1.359 c -3.493,-2.594 -8.403,-2.281 -11.543,0.766"
         style="fill:#ffffff;fill-opacity:1;fill-rule:nonzero;stroke:none"
         id="path140" /><path
         d="m 801.742,229.672 c 3.149,-3.016 3.696,-7.922 1.223,-11.516 l -1.293,-1.937 49.34,-47.485 1.933,1.375 c 3.524,2.625 8.332,2.297 11.481,-0.765 l -21.637,-22.485 c -3.16,3.032 -3.664,7.86 -1.191,11.454 l 1.285,1.984 -49.34,47.484 -1.855,-1.359 c -3.493,-2.594 -8.403,-2.281 -11.543,0.766 z"
         style="fill:none;stroke:#ffffff;stroke-width:3.896;stroke-linecap:butt;stroke-linejoin:miter;stroke-miterlimit:10;stroke-dasharray:none;stroke-opacity:1"
         id="path142" /><path
         d="m 820.23,266.609 c -2.105,-2.734 -6.093,-3.265 -8.839,-1.156 -2.743,2.141 -3.219,6.156 -1.114,8.906 l 0.703,0.907 c 2.172,2.718 6.141,3.172 8.875,1.047 2.743,-2.125 3.219,-6.079 1.122,-8.797 z m 7.926,-4.062 c 3.453,-2.672 4.469,-7.5 2.364,-11.328 l -1.036,-2.031 54,-42.125 1.731,1.578 c 3.219,2.953 8.058,3.14 11.512,0.453 l -19.2,-24.641 c -3.453,2.703 -4.472,7.438 -2.371,11.266 l 1.086,2.078 -53.945,42.125 -1.762,-1.547 c -3.219,-2.937 -8.129,-3.125 -11.543,-0.437 z m -26.14,-19.344 c -2.137,-2.734 -6.098,-3.265 -8.848,-1.14 -2.734,2.125 -3.25,6.171 -1.105,8.89 l 0.707,0.906 c 2.097,2.735 6.128,3.172 8.832,1.047 2.781,-2.109 3.25,-6.062 1.125,-8.828"
         style="fill:#ffffff;fill-opacity:1;fill-rule:nonzero;stroke:none"
         id="path144" /><path
         d="m 820.23,266.609 c -2.105,-2.734 -6.093,-3.265 -8.839,-1.156 -2.743,2.141 -3.219,6.156 -1.114,8.906 l 0.703,0.907 c 2.172,2.718 6.141,3.172 8.875,1.047 2.743,-2.125 3.219,-6.079 1.122,-8.797 z"
         style="fill:none;stroke:#ffffff;stroke-width:3.896;stroke-linecap:butt;stroke-linejoin:miter;stroke-miterlimit:10;stroke-dasharray:none;stroke-opacity:1"
         id="path146" /><path
         d="m 828.156,262.547 c 3.453,-2.672 4.469,-7.5 2.364,-11.328 l -1.036,-2.031 54,-42.125 1.731,1.578 c 3.219,2.953 8.058,3.14 11.512,0.453 l -19.2,-24.641 c -3.453,2.703 -4.472,7.438 -2.371,11.266 l 1.086,2.078 -53.945,42.125 -1.762,-1.547 c -3.219,-2.937 -8.129,-3.125 -11.543,-0.437 z"
         style="fill:none;stroke:#ffffff;stroke-width:3.896;stroke-linecap:butt;stroke-linejoin:miter;stroke-miterlimit:10;stroke-dasharray:none;stroke-opacity:1"
         id="path148" /><path
         d="m 802.016,243.203 c -2.137,-2.734 -6.098,-3.265 -8.848,-1.14 -2.734,2.125 -3.25,6.171 -1.105,8.89 l 0.707,0.906 c 2.097,2.735 6.128,3.172 8.832,1.047 2.781,-2.109 3.25,-6.062 1.125,-8.828 z"
         style="fill:none;stroke:#ffffff;stroke-width:3.896;stroke-linecap:butt;stroke-linejoin:miter;stroke-miterlimit:10;stroke-dasharray:none;stroke-opacity:1"
         id="path150" /><path
         d="m 462.52,734.359 c 0,-15.734 -10.192,-28.562 -22.75,-28.562 -12.532,0 -22.727,12.828 -22.727,28.562 0,15.766 10.195,28.579 22.727,28.579 12.558,0 22.75,-12.813 22.75,-28.579 z m 0,-110.75 c 0,-15.765 -10.192,-28.562 -22.75,-28.562 -12.532,0 -22.727,12.797 -22.727,28.562 0,15.735 10.195,28.563 22.727,28.563 12.558,0 22.75,-12.828 22.75,-28.563 z m 0,-112.859 c 0,-15.141 -9.442,-27.562 -21.329,-28.469 -0.472,0.078 -0.914,0.125 -1.421,0.125 -0.473,0 -0.918,-0.047 -1.391,-0.125 -11.887,0.907 -21.336,13.328 -21.336,28.469 0,15.75 10.195,28.563 22.727,28.563 12.558,0 22.75,-12.813 22.75,-28.563 z M 746.309,303.469 h -72.504 c -3.453,56.703 -31.766,93.094 -55.782,114 -18.921,16.5 -37.808,25.984 -48.179,30.375 v 356.375 c 0,2.203 -0.582,4.328 -1.766,6.172 -0.711,1.109 -17.953,27.515 -66.812,27.515 -59.528,0 -72.235,-23.968 -74.2,-28.781 -0.539,-1.344 -0.843,-2.828 -0.843,-4.297 v -21.14 c -18.657,-6.532 -32.203,-26.172 -32.203,-49.329 0,-23.953 14.558,-44.078 34.242,-49.89 V 673.5 c -19.684,-5.781 -34.242,-25.937 -34.242,-49.891 0,-23.984 14.558,-44.109 34.242,-49.921 v -13.032 c -19.684,-5.781 -34.242,-25.953 -34.242,-49.906 0,-23.969 14.558,-44.125 34.242,-49.891 V 447.25 c -53.418,-23.891 -78.407,-63.516 -90.02,-93.156 -8.133,-20.656 -10.976,-39.203 -11.918,-50.625 H 253.82 c -6.371,0 -11.511,-5.156 -11.511,-11.531 0,-6.375 5.14,-11.532 11.511,-11.532 h 83.672 c 6.406,0 11.551,5.157 11.551,11.532 l -0.199,0.078 v 0.234 c 0,0.234 -0.477,25.078 11.176,54.219 15.328,38.5 43.648,66.219 84.085,82.437 4.333,1.782 7.211,6.016 7.211,10.703 v 21.25 c 19.676,5.766 34.27,25.922 34.27,49.891 0,23.953 -14.594,44.125 -34.27,49.906 v 13.032 c 19.676,5.812 34.27,25.937 34.27,49.921 0,23.969 -14.594,44.11 -34.27,49.891 v 10.969 c 19.676,5.781 34.27,25.922 34.27,49.89 0,24.797 -15.578,45.563 -36.305,50.485 v 16.453 c 3.461,3.719 15.914,13.547 51.985,13.547 27.898,0 41.004,-10.141 45.547,-14.735 v -360.14 c 0,-5 3.226,-9.422 7.957,-10.969 0.984,-0.312 96.312,-32.422 96.312,-137.062 0,-6.375 5.152,-11.532 11.512,-11.532 h 83.715 c 6.336,0 11.519,5.157 11.519,11.532 0,6.375 -5.183,11.531 -11.519,11.531"
         style="fill:#ffffff;fill-opacity:1;fill-rule:nonzero;stroke:none"
         id="path152" /><path
         d="m 517.961,413.359 c 0,-10.531 -8.504,-19.062 -19.035,-19.062 -10.528,0 -19.063,8.531 -19.063,19.062 0,10.532 8.535,19.063 19.063,19.063 10.531,0 19.035,-8.531 19.035,-19.063"
         style="fill:#b28026;fill-opacity:1;fill-rule:nonzero;stroke:none"
         id="path154" /><path
         d="m 567.469,342.125 c 0,-15.719 -12.727,-28.469 -28.438,-28.469 -15.718,0 -28.488,12.75 -28.488,28.469 0,15.734 12.77,28.484 28.488,28.484 15.711,0 28.438,-12.75 28.438,-28.484"
         style="fill:#b28026;fill-opacity:1;fill-rule:nonzero;stroke:none"
         id="path156" /><path
         d="m 463.777,359.344 c 0,-6.906 -5.589,-12.516 -12.496,-12.516 -6.906,0 -12.496,5.61 -12.496,12.516 0,6.922 5.59,12.484 12.496,12.484 6.907,0 12.496,-5.562 12.496,-12.484"
         style="fill:#b28026;fill-opacity:1;fill-rule:nonzero;stroke:none"
         id="path158" /><path
         d="m 553.25,246.234 c -8.02,0 -14.492,6.485 -14.492,14.516 0,7.953 6.472,14.453 14.492,14.453 7.961,0 14.457,-6.5 14.457,-14.453 0,-8.031 -6.496,-14.516 -14.457,-14.516 z m -44.945,-56.937 c -11.887,0 -21.492,9.656 -21.492,21.531 0,11.906 9.605,21.531 21.492,21.531 11.898,0 21.547,-9.625 21.547,-21.531 0,-11.875 -9.649,-21.531 -21.547,-21.531 z m -55.664,42.078 c -6.129,0 -11.141,4.984 -11.141,11.141 0,6.172 5.012,11.156 11.141,11.156 6.152,0 11.136,-4.984 11.136,-11.156 0,-6.157 -4.984,-11.141 -11.136,-11.141 z m 129.668,75.047 c -45.016,0 -90.559,-38.891 -145.993,-38.891 -27.5,-1.531 -53.472,15.485 -63.937,23.344 5.144,-65.703 60.039,-117.437 127.027,-117.437 66.094,0 120.418,50.328 126.817,114.75 -9.918,9.75 -23.563,18.234 -43.914,18.234"
         style="fill:#b28026;fill-opacity:1;fill-rule:nonzero;stroke:none"
         id="path160" /></g></g></svg>
