<?xml version="1.0" standalone="no"?>
<!DOCTYPE svg PUBLIC "-//W3C//DTD SVG 20010904//EN"
 "http://www.w3.org/TR/2001/REC-SVG-20010904/DTD/svg10.dtd">
<svg version="1.0" xmlns="http://www.w3.org/2000/svg"
 width="576.000000pt" height="576.000000pt" viewBox="0 0 576.000000 576.000000"
 preserveAspectRatio="xMidYMid meet">
<metadata>
Created by potrace 1.14, written by Peter Selinger 2001-2017
</metadata>
<g transform="translate(0.000000,576.000000) scale(0.100000,-0.100000)"
fill="#000000" stroke="none">
<path d="M2807 5644 c-1 -1 -32 -4 -69 -8 -36 -3 -72 -8 -80 -11 -7 -2 -26 -6
-43 -8 -47 -7 -156 -46 -200 -72 -48 -28 -101 -78 -127 -120 -14 -24 -18 -50
-18 -130 l0 -100 -47 -25 c-97 -50 -176 -155 -207 -273 -15 -56 -15 -179 -1
-232 30 -117 121 -232 219 -278 53 -25 53 -26 52 -70 -1 -42 -3 -46 -36 -57
-103 -37 -200 -156 -234 -287 -13 -50 -14 -171 -2 -228 24 -109 117 -229 217
-280 l57 -29 -2 -47 c-1 -26 -4 -50 -6 -52 -3 -3 -28 -16 -56 -30 -200 -101
-281 -387 -170 -605 45 -88 97 -139 183 -179 l52 -24 -3 -52 c-2 -29 -4 -55
-5 -58 0 -3 -20 -14 -43 -25 -24 -10 -79 -40 -123 -67 -237 -145 -410 -334
-529 -577 -64 -130 -104 -255 -144 -452 -1 -5 -2 -24 -2 -43 l0 -35 -312 0
c-343 0 -351 -2 -380 -59 -19 -39 -10 -76 28 -112 l24 -23 380 0 c209 -1 380
2 380 7 0 4 7 7 15 7 27 0 46 46 51 122 14 216 80 424 195 618 23 38 45 70 49
70 5 0 12 9 15 20 14 44 208 221 307 279 87 52 143 81 155 81 7 0 13 4 13 9 0
5 13 11 29 14 35 7 75 43 86 75 4 13 7 63 6 112 l0 88 52 26 c166 81 263 296
220 489 -30 136 -115 249 -221 297 l-52 24 1 54 c2 53 3 54 43 72 141 61 245
235 240 402 -2 76 -30 175 -67 237 -39 64 -117 135 -173 157 -40 15 -41 17
-42 62 -2 47 -1 47 46 66 50 21 172 135 172 161 0 8 4 15 8 15 14 0 53 142 56
200 4 124 -47 260 -128 340 -44 43 -107 83 -148 93 -24 6 -26 10 -24 74 1 38
5 74 10 81 10 17 92 57 141 71 80 21 102 23 238 27 185 5 307 -24 396 -94 l24
-19 1 -1521 1 -1520 23 -25 c13 -14 45 -33 70 -42 133 -50 316 -171 428 -282
125 -126 218 -270 276 -429 41 -111 59 -207 72 -396 5 -68 27 -104 69 -114 18
-4 189 -8 380 -8 263 -1 357 2 381 12 66 26 77 116 20 161 -26 20 -39 21 -345
21 l-319 0 -1 33 c-3 83 -27 210 -61 312 -113 344 -356 625 -700 809 -51 27
-95 52 -98 57 -3 4 -5 675 -4 1491 1 871 -3 1493 -8 1508 -36 99 -249 214
-437 237 -41 4 -210 10 -214 7z m-338 -654 c93 -66 126 -193 81 -313 -64 -171
-257 -178 -332 -11 -55 125 -5 291 102 338 43 19 113 13 149 -14z m-7 -916
c60 -31 108 -128 108 -218 -2 -168 -130 -277 -255 -216 -92 45 -147 192 -110
295 4 11 11 32 17 46 14 38 78 96 118 107 39 11 82 6 122 -14z m5 -945 c10 -8
26 -21 36 -29 64 -52 84 -221 38 -310 -23 -44 -54 -74 -99 -97 -63 -33 -160 4
-205 77 -15 25 -30 57 -33 70 -3 14 -7 36 -10 48 -9 44 15 136 48 184 29 42
64 66 118 81 23 6 88 -9 107 -24z"/>
<path d="M2842 2259 c-50 -10 -98 -53 -114 -101 -15 -48 -15 -62 -4 -98 23
-70 86 -114 159 -112 126 5 194 152 117 252 -41 54 -92 73 -158 59z"/>
<path d="M2416 1735 c-32 -27 -44 -54 -39 -90 13 -95 129 -128 180 -52 27 41
31 64 15 103 -25 61 -107 81 -156 39z"/>
<path d="M3138 1738 c-47 -13 -113 -70 -139 -121 -63 -123 0 -280 131 -325 88
-30 168 -16 232 40 192 171 26 473 -224 406z"/>
<path d="M3517 1213 c-1 -1 -22 -4 -47 -6 -25 -3 -45 -6 -45 -7 0 -1 -13 -4
-30 -6 -47 -8 -225 -70 -395 -139 -129 -52 -248 -96 -270 -100 -3 -1 -30 -8
-60 -17 -30 -9 -68 -19 -85 -22 -16 -3 -55 -9 -85 -15 -30 -5 -109 -9 -175 -7
-99 3 -134 8 -200 30 -74 26 -195 86 -273 137 l-32 21 5 -48 c18 -148 94 -347
179 -468 58 -83 164 -192 246 -254 57 -42 230 -137 230 -126 0 4 6 2 13 -4 14
-11 132 -47 192 -57 22 -4 51 -9 65 -12 49 -10 226 -6 300 7 383 64 692 323
831 695 16 43 26 81 45 170 11 50 7 86 -12 100 -94 73 -175 111 -259 122 -41
5 -135 10 -138 6z m-96 -304 c33 -38 35 -98 5 -144 -20 -30 -76 -55 -111 -49
-38 7 -85 35 -85 51 0 7 -4 13 -10 13 -15 0 -12 77 4 109 19 36 39 52 79 61
38 8 91 -10 118 -41z m-866 -165 c38 -35 35 -94 -6 -128 -55 -47 -120 -28
-147 44 -17 44 14 95 66 109 35 10 56 4 87 -25z m476 -167 c70 -29 113 -116
97 -192 -20 -89 -85 -143 -173 -143 -58 1 -94 16 -135 59 -27 28 -53 106 -45
133 2 6 6 23 9 38 9 38 54 88 99 108 44 20 96 19 148 -3z"/>
</g>
</svg>
